<?xml version="1.0" encoding="UTF-8"?>
<svg width="3300px" height="2200px" viewBox="0 0 3300 2200" version="1.1" xmlns="http://www.w3.org/2000/svg" xmlns:xlink="http://www.w3.org/1999/xlink">
    <title>mastodon</title>
    <g id="Page-1" stroke="none" stroke-width="1" fill="none" fill-rule="evenodd">
        <g id="mastodon">
            <g id="Notes">
                <rect id="artboard" fill="#FFFFFF" fill-rule="nonzero" x="0" y="0" width="3300" height="2200"></rect>
                <line x1="263" y1="292" x2="3036" y2="292" id="Path" stroke="#000000" stroke-width="0.5"></line>
                <text id="Weight/Scale-Variations" fill="#000000" fill-rule="nonzero" font-family="Helvetica" font-size="13" font-weight="normal">
                    <tspan x="263" y="322">Weight/Scale Variations</tspan>
                </text>
                <text id="Ultralight" fill="#000000" fill-rule="nonzero" font-family="Helvetica" font-size="13" font-weight="normal">
                    <tspan x="533.711" y="322">Ultralight</tspan>
                </text>
                <text id="Thin" fill="#000000" fill-rule="nonzero" font-family="Helvetica" font-size="13" font-weight="normal">
                    <tspan x="843.422" y="322">Thin</tspan>
                </text>
                <text id="Light" fill="#000000" fill-rule="nonzero" font-family="Helvetica" font-size="13" font-weight="normal">
                    <tspan x="1138.63" y="322">Light</tspan>
                </text>
                <text id="Regular" fill="#000000" fill-rule="nonzero" font-family="Helvetica" font-size="13" font-weight="normal">
                    <tspan x="1426.84" y="322">Regular</tspan>
                </text>
                <text id="Medium" fill="#000000" fill-rule="nonzero" font-family="Helvetica" font-size="13" font-weight="normal">
                    <tspan x="1723.06" y="322">Medium</tspan>
                </text>
                <text id="Semibold" fill="#000000" fill-rule="nonzero" font-family="Helvetica" font-size="13" font-weight="normal">
                    <tspan x="2015.77" y="322">Semibold</tspan>
                </text>
                <text id="Bold" fill="#000000" fill-rule="nonzero" font-family="Helvetica" font-size="13" font-weight="normal">
                    <tspan x="2326.48" y="322">Bold</tspan>
                </text>
                <text id="Heavy" fill="#000000" fill-rule="nonzero" font-family="Helvetica" font-size="13" font-weight="normal">
                    <tspan x="2618.19" y="322">Heavy</tspan>
                </text>
                <text id="Black" fill="#000000" fill-rule="nonzero" font-family="Helvetica" font-size="13" font-weight="normal">
                    <tspan x="2917.4" y="322">Black</tspan>
                </text>
                <line x1="263" y1="1903" x2="3036" y2="1903" id="Path" stroke="#000000" stroke-width="0.5"></line>
                <g id="Group" transform="translate(264.367190, 1918.068400)" fill="#000000" fill-rule="nonzero">
                    <path d="M7.88086,15.761678 C12.18751,15.761678 15.77151,12.18746 15.77151,7.88082 C15.77151,3.5742 12.17771,0 7.87109,0 C3.57422,0 -8.8817842e-16,3.5742 -8.8817842e-16,7.88082 C-8.8817842e-16,12.18746 3.58398,15.761678 7.88086,15.761678 Z M7.88086,14.277303 C4.33593,14.277303 1.5039,11.43551 1.5039,7.88082 C1.5039,4.3261 4.32617,1.4843 7.87109,1.4843 C11.42581,1.4843 14.27731,4.3261 14.27731,7.88082 C14.27731,11.43551 11.43551,14.277303 7.88086,14.277303 Z M4.28711,7.88082 C4.28711,8.31051 4.58984,8.60348 5.03906,8.60348 L7.13867,8.60348 L7.13867,10.72262 C7.13867,11.16207 7.43164,11.4648 7.86133,11.4648 C8.31054,11.4648 8.60351,11.16207 8.60351,10.72262 L8.60351,8.60348 L10.72261,8.60348 C11.16211,8.60348 11.46481,8.31051 11.46481,7.88082 C11.46481,7.44137 11.16211,7.13863 10.72261,7.13863 L8.60351,7.13863 L8.60351,5.02926 C8.60351,4.58 8.31054,4.2773 7.86133,4.2773 C7.43164,4.2773 7.13867,4.58 7.13867,5.02926 L7.13867,7.13863 L5.03906,7.13863 C4.58984,7.13863 4.28711,7.44137 4.28711,7.88082 Z" id="Shape"></path>
                </g>
                <g id="Group" transform="translate(283.615050, 1915.988300)" fill="#000000" fill-rule="nonzero">
                    <path d="M9.96095,19.92186 C15.41015,19.92186 19.92185,15.40037 19.92185,9.96092 C19.92185,4.5117 15.40035,0 9.95115,0 C4.51172,0 8.8817842e-16,4.5117 8.8817842e-16,9.96092 C8.8817842e-16,15.40037 4.52148,19.92186 9.96095,19.92186 Z M9.96095,18.2617 C5.35156,18.2617 1.66992,14.57029 1.66992,9.96092 C1.66992,5.3515 5.34179,1.6601 9.95115,1.6601 C14.56055,1.6601 18.26175,5.3515 18.26175,9.96092 C18.26175,14.57029 14.57035,18.2617 9.96095,18.2617 Z M5.42968,9.96092 C5.42968,10.43943 5.76172,10.7617 6.25976,10.7617 L9.13085,10.7617 L9.13085,13.64256 C9.13085,14.13084 9.46285,14.47264 9.94145,14.47264 C10.42965,14.47264 10.77145,14.14061 10.77145,13.64256 L10.77145,10.7617 L13.65235,10.7617 C14.14065,10.7617 14.48245,10.43943 14.48245,9.96092 C14.48245,9.47264 14.14065,9.13084 13.65235,9.13084 L10.77145,9.13084 L10.77145,6.2597 C10.77145,5.7617 10.42965,5.4199 9.94145,5.4199 C9.46285,5.4199 9.13085,5.7617 9.13085,6.2597 L9.13085,9.13084 L6.25976,9.13084 C5.76172,9.13084 5.42968,9.47264 5.42968,9.96092 Z" id="Shape"></path>
                </g>
                <g id="Group" transform="translate(307.901860, 1913.224600)" fill="#000000" fill-rule="nonzero">
                    <path d="M12.71484,25.43946 C19.67774,25.43946 25.43944,19.6777438 25.43944,12.72462 C25.43944,5.7617 19.66794,0 12.70504,0 C5.75195,0 0,5.7617 0,12.72462 C0,19.6777438 5.76172,25.43946 12.71484,25.43946 Z M12.71484,23.62306 C6.67969,23.62306 1.82617,18.75978 1.82617,12.72462 C1.82617,6.6797 6.66992,1.8262 12.70504,1.8262 C18.75004,1.8262 23.61324,6.6797 23.61324,12.72462 C23.61324,18.75978 18.75974,23.62306 12.71484,23.62306 Z M6.94336,12.72462 C6.94336,13.2422 7.31445,13.60352 7.86134,13.60352 L11.80664,13.60352 L11.80664,17.5586 C11.80664,18.09571 12.17774,18.47657 12.69534,18.47657 C13.23244,18.47657 13.60354,18.10548 13.60354,17.5586 L13.60354,13.60352 L17.55864,13.60352 C18.09574,13.60352 18.47654,13.2422 18.47654,12.72462 C18.47654,12.17774 18.10544,11.80665 17.55864,11.80665 L13.60354,11.80665 L13.60354,7.8613 C13.60354,7.3145 13.23244,6.9336 12.69534,6.9336 C12.17774,6.9336 11.80664,7.3145 11.80664,7.8613 L11.80664,11.80665 L7.86134,11.80665 C7.31445,11.80665 6.94336,12.17774 6.94336,12.72462 Z" id="Shape"></path>
                </g>
                <text id="Design-Variations" fill="#000000" fill-rule="nonzero" font-family="Helvetica" font-size="13" font-weight="normal">
                    <tspan x="263" y="1953">Design Variations</tspan>
                </text>
                <text id="Symbols-are-supported-in-up-to-nine-weights-and-three-scales." fill="#000000" fill-rule="nonzero" font-family="Helvetica" font-size="13" font-weight="normal">
                    <tspan x="263" y="1971">Symbols are supported in up to nine weights and three scales.</tspan>
                </text>
                <text id="For-optimal-layout-with-text-and-other-symbols,-vertically-align" fill="#000000" fill-rule="nonzero" font-family="Helvetica" font-size="13" font-weight="normal">
                    <tspan x="263" y="1989">For optimal layout with text and other symbols, vertically align</tspan>
                </text>
                <text id="symbols-with-the-adjacent-text." fill="#000000" fill-rule="nonzero" font-family="Helvetica" font-size="13" font-weight="normal">
                    <tspan x="263" y="2007">symbols with the adjacent text.</tspan>
                </text>
                <line x1="776" y1="1919" x2="776" y2="1933" id="Path" stroke="#00AEEF" stroke-width="0.5"></line>
                <g id="Group" transform="translate(778.490230, 1918.732400)" fill="#000000" fill-rule="nonzero">
                    <path d="M0.82032,14.42385 C1.33789,14.42385 1.5918,14.2285375 1.77735,13.681662 L3.03711,10.2344 L8.79887,10.2344 L10.05857,13.681662 C10.24417,14.2285375 10.49807,14.42385 11.00587,14.42385 C11.52347,14.42385 11.85547,14.11135 11.85547,13.623069 C11.85547,13.457053 11.82617,13.300803 11.74807,13.09572 L7.16797,0.8985 C6.94336,0.3028 6.54297,0 5.91797,0 C5.3125,0 4.90235,0.293 4.6875,0.8887 L0.10743,13.10549 C0.0293,13.310569 -4.4408921e-16,13.466819 -4.4408921e-16,13.632834 C-4.4408921e-16,14.121116 0.3125,14.42385 0.82032,14.42385 Z M3.51563,8.75002 L5.88868,2.1778 L5.9375,2.1778 L8.31057,8.75002 L3.51563,8.75002 Z" id="Shape"></path>
                </g>
                <line x1="793.197" y1="1919" x2="793.197" y2="1933" id="Path" stroke="#00AEEF" stroke-width="0.5"></line>
                <text id="Margins" fill="#000000" fill-rule="nonzero" font-family="Helvetica" font-size="13" font-weight="normal">
                    <tspan x="776" y="1953">Margins</tspan>
                </text>
                <text id="Leading-and-trailing-margins-on-the-left-and-right-side-of-each-symbol" fill="#000000" fill-rule="nonzero" font-family="Helvetica" font-size="13" font-weight="normal">
                    <tspan x="776" y="1971">Leading and trailing margins on the left and right side of each symbol</tspan>
                </text>
                <text id="can-be-adjusted-by-modifying-the-x-location-of-the-margin-guidelines." fill="#000000" fill-rule="nonzero" font-family="Helvetica" font-size="13" font-weight="normal">
                    <tspan x="776" y="1989">can be adjusted by modifying the x-location of the margin guidelines.</tspan>
                </text>
                <text id="Modifications-are-automatically-applied-proportionally-to-all" fill="#000000" fill-rule="nonzero" font-family="Helvetica" font-size="13" font-weight="normal">
                    <tspan x="776" y="2007">Modifications are automatically applied proportionally to all</tspan>
                </text>
                <text id="scales-and-weights." fill="#000000" fill-rule="nonzero" font-family="Helvetica" font-size="13" font-weight="normal">
                    <tspan x="776" y="2025">scales and weights.</tspan>
                </text>
                <g id="Group" transform="translate(1291.248126, 1914.517396)" fill="#000000" fill-rule="nonzero">
                    <path d="M0.593673634,20.347834 L2.29289363,22.056824 C3.15226363,22.925964 4.13859363,22.867374 5.06632363,21.841984 L15.7596736,10.054874 L14.7928736,9.07830404 L4.17765363,20.757994 C3.82609363,21.158384 3.49406363,21.256044 3.02531363,20.787294 L1.85343363,19.625184 C1.38468363,19.166198 1.49210363,18.824401 1.89249363,18.4630728 L13.3670736,7.66230404 L12.3905736,6.69550404 L0.798753634,17.584166 C-0.187576366,18.5021352 -0.265706366,19.478698 0.593673634,20.347834 Z M7.00968363,2.15450404 C6.58976363,2.56460404 6.56046363,3.14080404 6.79484363,3.53140404 C7.02921363,3.89280404 7.48820363,4.12710404 8.13277363,3.96110404 C9.59757363,3.61930404 11.1209736,3.56070404 12.5467736,4.49820404 L11.9608736,5.95330404 C11.6190736,6.78340404 11.7948736,7.36930404 12.3319736,7.91620404 L14.6268736,10.230654 C15.1151736,10.718934 15.5252736,10.738464 16.0916736,10.640804 L17.1561736,10.445494 L17.8202736,11.119324 L17.7811736,11.675964 C17.7420736,12.174014 17.8690736,12.554874 18.3573736,13.033384 L19.1190736,13.775574 C19.5975736,14.254084 20.2127736,14.283384 20.6815736,13.814634 L23.5916736,10.894714 C24.0604736,10.425964 24.0409736,9.83026404 23.5623736,9.35174404 L22.7909736,8.59002404 C22.3123736,8.11150404 21.9413736,7.95530404 21.4627736,7.99430404 L20.8866736,8.04310404 L20.2420736,7.40840404 L20.4862736,6.28530404 C20.6131736,5.71890404 20.4569736,5.27950404 19.8709736,4.69350404 L17.6737736,2.50600404 C14.3338736,-0.814295964 9.90027363,-0.736195964 7.00968363,2.15450404 Z M8.50387363,2.52560404 C10.9354736,0.748204036 14.2264736,1.05100404 16.4530736,3.27750404 L18.8846736,5.68960404 C19.1190736,5.92400404 19.1580736,6.10960404 19.0897736,6.45140404 L18.7674736,7.93570404 L20.2713736,9.42010404 L21.2577736,9.36151404 C21.5116736,9.35174404 21.5897736,9.37127404 21.7850736,9.56658404 L22.3612736,10.142764 L19.9198736,12.584164 L19.3436736,12.007994 C19.1483736,11.812684 19.1190736,11.734554 19.1288736,11.470884 L19.1971736,10.494324 L17.7030736,9.00994404 L16.1795736,9.26385404 C15.8573736,9.33221404 15.7108736,9.30291404 15.4666736,9.06854404 L13.4647736,7.06660404 C13.2108736,6.83220404 13.1815736,6.66620404 13.3377736,6.29510404 L14.2166736,4.20530404 C12.6541736,2.75020404 10.6229736,2.12520404 8.59167363,2.72090404 C8.43547363,2.75990404 8.37687363,2.63300404 8.50387363,2.52560404 Z" id="Shape"></path>
                </g>
                <text id="Exporting" fill="#000000" fill-rule="nonzero" font-family="Helvetica" font-size="13" font-weight="normal">
                    <tspan x="1289" y="1953">Exporting</tspan>
                </text>
                <text id="Symbols-should-be-outlined-when-exporting-to-ensure-the" fill="#000000" fill-rule="nonzero" font-family="Helvetica" font-size="13" font-weight="normal">
                    <tspan x="1289" y="1971">Symbols should be outlined when exporting to ensure the</tspan>
                </text>
                <text id="design-is-preserved-when-submitting-to-Xcode." fill="#000000" fill-rule="nonzero" font-family="Helvetica" font-size="13" font-weight="normal">
                    <tspan x="1289" y="1989">design is preserved when submitting to Xcode.</tspan>
                </text>
                <text id="template-version" fill="#000000" fill-rule="nonzero" font-family="Helvetica" font-size="13" font-weight="normal">
                    <tspan x="2952" y="1933">Template v.4.0</tspan>
                </text>
                <text id="Requires-Xcode-14-or-greater" fill="#000000" fill-rule="nonzero" font-family="Helvetica" font-size="13" font-weight="normal">
                    <tspan x="2865" y="1951">Requires Xcode 14 or greater</tspan>
                </text>
                <text id="descriptive-name" fill="#000000" fill-rule="nonzero" font-family="Helvetica" font-size="13" font-weight="normal">
                    <tspan x="2901" y="1969">Generated from square</tspan>
                </text>
                <text id="Typeset-at-100-points" fill="#000000" fill-rule="nonzero" font-family="Helvetica" font-size="13" font-weight="normal">
                    <tspan x="2912" y="1987">Typeset at 100 points</tspan>
                </text>
                <text id="Small" fill="#000000" fill-rule="nonzero" font-family="Helvetica" font-size="13" font-weight="normal">
                    <tspan x="263" y="726">Small</tspan>
                </text>
                <text id="Medium" fill="#000000" fill-rule="nonzero" font-family="Helvetica" font-size="13" font-weight="normal">
                    <tspan x="263" y="1156">Medium</tspan>
                </text>
                <text id="Large" fill="#000000" fill-rule="nonzero" font-family="Helvetica" font-size="13" font-weight="normal">
                    <tspan x="263" y="1586">Large</tspan>
                </text>
            </g>
            <g id="Guides" transform="translate(263.000000, 600.785000)">
                <g id="H-reference" transform="translate(76.993654, 24.756000)" fill="#27AAE1" fill-rule="nonzero">
                    <path d="M0,70.459 L2.644096,70.459 L28.334446,3.3267 L29.036646,3.3267 L29.036646,0 L27.128946,0 L0,70.459 Z M10.694846,45.9791 L45.987846,45.9791 L45.237846,43.7305 L11.444846,43.7305 L10.694846,45.9791 Z M54.125946,70.459 L56.770046,70.459 L29.644546,0 L28.438946,0 L28.438946,3.3267 L54.125946,70.459 Z" id="Shape"></path>
                </g>
                <line x1="0" y1="95.215" x2="2773" y2="95.215" id="Baseline-S" stroke="#27AAE1" stroke-width="0.5"></line>
                <line x1="0" y1="24.756" x2="2773" y2="24.756" id="Capline-S" stroke="#27AAE1" stroke-width="0.5"></line>
                <g id="H-reference" transform="translate(76.993654, 454.756000)" fill="#27AAE1" fill-rule="nonzero">
                    <path d="M0,70.459 L2.644096,70.459 L28.334446,3.3267 L29.036646,3.3267 L29.036646,0 L27.128946,0 L0,70.459 Z M10.694846,45.9791 L45.987846,45.9791 L45.237846,43.7305 L11.444846,43.7305 L10.694846,45.9791 Z M54.125946,70.459 L56.770046,70.459 L29.644546,0 L28.438946,0 L28.438946,3.3267 L54.125946,70.459 Z" id="Shape"></path>
                </g>
                <line x1="0" y1="525.215" x2="2773" y2="525.215" id="Baseline-M" stroke="#27AAE1" stroke-width="0.5"></line>
                <line x1="0" y1="454.755" x2="2773" y2="454.755" id="Capline-M" stroke="#27AAE1" stroke-width="0.5"></line>
                <g id="H-reference" transform="translate(76.993654, 884.756000)" fill="#27AAE1" fill-rule="nonzero">
                    <path d="M0,70.459 L2.644096,70.459 L28.334446,3.3267 L29.036646,3.3267 L29.036646,0 L27.128946,0 L0,70.459 Z M10.694846,45.9791 L45.987846,45.9791 L45.237846,43.7305 L11.444846,43.7305 L10.694846,45.9791 Z M54.125946,70.459 L56.770046,70.459 L29.644546,0 L28.438946,0 L28.438946,3.3267 L54.125946,70.459 Z" id="Shape"></path>
                </g>
                <line x1="0" y1="955.215" x2="2773" y2="955.215" id="Baseline-L" stroke="#27AAE1" stroke-width="0.5"></line>
                <line x1="0" y1="884.755" x2="2773" y2="884.755" id="Capline-L" stroke="#27AAE1" stroke-width="0.5"></line>
                <line x1="253.35" y1="1.13686838e-13" x2="253.35" y2="119.336" id="left-margin-Ultralight-S" stroke="#00AEEF" stroke-width="0.5"></line>
                <line x1="340.073" y1="1.13686838e-13" x2="340.073" y2="119.336" id="right-margin-Ultralight-S" stroke="#00AEEF" stroke-width="0.5"></line>
                <line x1="1141.51" y1="1.13686838e-13" x2="1141.51" y2="119.336" id="left-margin-Regular-S" stroke="#00AEEF" stroke-width="0.5"></line>
                <line x1="1232.18" y1="1.13686838e-13" x2="1232.18" y2="119.336" id="right-margin-Regular-S" stroke="#00AEEF" stroke-width="0.5"></line>
                <line x1="2622.5" y1="1.13686838e-13" x2="2622.5" y2="119.336" id="left-margin-Black-S" stroke="#00AEEF" stroke-width="0.5"></line>
                <line x1="2718.3" y1="1.13686838e-13" x2="2718.3" y2="119.336" id="right-margin-Black-S" stroke="#00AEEF" stroke-width="0.5"></line>
            </g>
            <g id="Symbols" transform="translate(526.115620, 622.660200)" fill="#000000" fill-rule="nonzero">
                <g id="Black-S" transform="translate(2369.150000, 0.000000)">
                    <path d="M73.8951223,16.9604453 C72.7845479,8.79455717 65.5896864,2.35928643 57.0607326,1.11230182 C55.6217992,0.901589869 50.1698711,0.134745 37.5405224,0.134745 L37.4462044,0.134745 C24.8134455,0.134745 22.1031686,0.901589869 20.6642353,1.11230182 C12.3727327,2.3247454 4.80076507,8.10716641 2.96364631,16.3696915 C2.08001522,20.4388094 1.98571437,24.9500915 2.14986755,29.0882915 C2.38387252,35.0227222 2.42927667,40.9467273 2.97412457,46.856994 C3.35079226,50.7828811 4.00788046,54.6774914 4.94046866,58.5115939 C6.68677327,65.5928452 13.7558353,71.4857682 20.6816763,73.889999 C28.0968404,76.3972195 36.0711891,76.8133682 43.7120147,75.0920657 C44.5524967,74.8986554 45.3838198,74.6740657 46.2056916,74.4184913 C48.0602865,73.8347528 50.2362249,73.1818349 51.83583,72.0350144 C51.8577531,72.0189375 51.8757787,71.9981836 51.8884454,71.9742144 C51.9011121,71.9503426 51.9082249,71.92384 51.9091018,71.8968503 L51.9091018,66.1697631 C51.9087121,66.1445272 51.9026711,66.1196811 51.8913685,66.0970759 C51.8799685,66.0744708 51.8636967,66.0545939 51.8435275,66.0391016 C51.8234557,66.0235118 51.8000711,66.012599 51.7752249,66.0070452 C51.7502813,66.0015888 51.7244608,66.0016862 51.6996146,66.0073375 C46.8042403,67.1639016 41.7877531,67.7436452 36.7547019,67.7344862 C28.0930404,67.7344862 25.7634455,63.6688759 25.0963019,61.9762195 C24.5601122,60.5134144 24.2195737,58.9875683 24.0834558,57.4373632 C24.0820917,57.4113478 24.0869635,57.3853324 24.097584,57.3614606 C24.1082045,57.3376862 24.1244763,57.3166401 24.1448404,57.3001734 C24.1653019,57.2837067 24.1893686,57.2722093 24.2150917,57.2666555 C24.2408147,57.2610042 24.2675122,57.2615888 24.2930404,57.268117 C29.1068609,58.4167888 34.0415019,58.9965324 38.9934865,58.9952657 C40.1844455,58.9952657 41.3718967,58.9952657 42.5629531,58.9641837 C47.543389,58.8260196 52.792748,58.5738555 57.6928967,57.6273631 C57.8151787,57.603199 57.9373633,57.5824452 58.0422044,57.5513631 C65.7713069,56.0832965 73.1267428,51.475358 73.8741735,39.8068248 C73.9021376,39.3474145 73.9719992,34.9950504 73.9719992,34.518394 C73.9755069,32.8983273 74.4994197,23.0261222 73.8951223,16.9604453 Z M61.999271,46.0763376 L53.8720454,46.0763376 L53.8720454,26.3870761 C53.8720454,22.2419582 52.1257018,20.1279889 48.5736762,20.1279889 C44.6689326,20.1279889 42.7131019,22.6288761 42.7131019,27.5683889 L42.7131019,38.345676 L34.6346916,38.345676 L34.6346916,27.5683889 C34.6346916,22.6288761 32.6753532,20.1279889 28.7706096,20.1279889 C25.2395327,20.1279889 23.4757481,22.2419582 23.4722404,26.3870761 L23.4722404,46.0763376 L15.3519327,46.0763376 L15.3519327,25.7895017 C15.3519327,21.6443838 16.4218763,18.3513428 18.5616661,15.9102813 C20.7689789,13.4750659 23.664384,12.224671 27.258307,12.224671 C31.4179429,12.224671 34.5613224,13.8066402 36.6568762,16.9673633 L38.6791583,20.3249069 L40.7048506,16.9673633 C42.8004044,13.8066402 45.9437839,12.224671 50.0965018,12.224671 C53.6869172,12.224671 56.5822249,13.4750659 58.7965531,15.9102813 C60.9364403,18.3490043 62.0062864,21.6420453 62.0062864,25.7895017 L61.999271,46.0763376 Z" id="Shape"></path>
                </g>
                <g id="Regular-S" transform="translate(888.160000, 2.539000)">
                    <path d="M68.9789688,15.8144589 C67.9414586,8.18580019 61.2199432,2.17390252 53.2521048,1.00895637 C51.9078381,0.812107049 46.8145894,0.0957125 35.0161189,0.0957125 L34.9280061,0.0957125 C23.1263498,0.0957125 20.5943805,0.812107049 19.2501139,1.00895637 C11.5041049,2.14163393 4.43029303,7.5436325 2.71403734,15.2625704 C1.88853988,19.0639832 1.80044303,23.2784704 1.95379665,27.1444204 C2.17240656,32.688428 2.2148236,38.222696 2.72382624,43.7441293 C3.07571316,47.4117344 3.68957188,51.0501203 4.56080559,54.6319793 C6.19222174,61.2473587 12.7962139,66.7525895 19.2664075,68.9986471 C26.1937318,71.3409189 33.6434523,71.7296894 40.781592,70.1216305 C41.5667792,69.9409446 42.3434099,69.7311305 43.1112112,69.4923702 C44.8437933,68.9470356 46.8765779,68.3370728 48.3709458,67.265701 C48.3914266,67.2506818 48.4082663,67.2312933 48.4200997,67.208901 C48.431933,67.1865997 48.4385779,67.1618407 48.4393971,67.1366266 L48.4393971,61.7863215 C48.439033,61.7627459 48.4333894,61.7395344 48.4228304,61.7184164 C48.4121804,61.6972985 48.3969792,61.6787292 48.3781368,61.6642561 C48.3593856,61.649692 48.3375394,61.6394972 48.3143279,61.6343087 C48.2910253,61.6292113 48.2669035,61.6293023 48.243692,61.6345818 C43.6703817,62.7150561 38.9839266,63.2566587 34.2819972,63.2481023 C26.1901818,63.2481023 24.0138498,59.4499664 23.3905972,57.868669 C22.8896831,56.502101 22.5715485,55.0766395 22.4443857,53.6284216 C22.4431113,53.6041177 22.4476626,53.5798139 22.4575844,53.5575126 C22.4675062,53.5353023 22.4827075,53.5156408 22.5017318,53.5002575 C22.5208472,53.4848741 22.5433305,53.4741331 22.5673613,53.4689446 C22.5913921,53.4636652 22.6163331,53.4642113 22.6401818,53.47031 C27.1373036,54.5434113 31.7472972,55.0850139 36.3734933,55.0838305 C37.4860997,55.0838305 38.5954292,55.0838305 39.7081266,55.0547934 C44.3609022,54.925719 49.2649086,54.6901446 53.8426791,53.8059216 C53.9569163,53.7833472 54.0710625,53.7639587 54.1690061,53.7349216 C61.389615,52.3634382 68.2611406,48.0586536 68.9593983,37.157787 C68.9855227,36.7286011 69.0507881,32.6625768 69.0507881,32.2172793 C69.054065,30.703796 69.5435098,21.4810781 68.9789688,15.8144589 Z M57.8657394,43.0148319 L50.2731997,43.0148319 L50.2731997,24.6209165 C50.2731997,20.7485037 48.6417471,18.7736114 45.3234074,18.7736114 C41.6755548,18.7736114 39.8483971,21.1099666 39.8483971,25.7245114 L39.8483971,35.7927665 L32.3014613,35.7927665 L32.3014613,25.7245114 C32.3014613,21.1099666 30.4710267,18.7736114 26.8231741,18.7736114 C23.5244049,18.7736114 21.8766587,20.7485037 21.8733818,24.6209165 L21.8733818,43.0148319 L14.2873049,43.0148319 L14.2873049,24.0626563 C14.2873049,20.1902435 15.2868575,17.1138499 17.2858716,14.8333845 C19.3479664,12.5583807 22.0528844,11.3902486 25.4103651,11.3902486 C29.2963408,11.3902486 32.232919,12.8681409 34.1906074,15.8209217 L36.0798446,18.9575743 L37.9722677,15.8209217 C39.9299561,12.8681409 42.8665343,11.3902486 46.7460471,11.3902486 C50.1002509,11.3902486 52.8050779,12.5583807 54.8737266,14.8333845 C56.8728317,17.1116653 57.8722932,20.1880589 57.8722932,24.0626563 L57.8657394,43.0148319 Z" id="Shape"></path>
                </g>
                <g id="Ultralight-S" transform="translate(0.000000, 4.582500)">
                    <path d="M65.1215461,14.9308332 C64.1424871,7.7319581 57.7996487,2.05875889 50.2807025,0.95944351 C49.0121692,0.773684292 44.2058641,0.09765 33.0720962,0.09765 L32.9889475,0.09765 C21.8521732,0.09765 19.4628501,0.773684292 18.1943168,0.95944351 C10.8847027,2.02830825 4.20941539,7.12596887 2.58985017,14.4100371 C1.81085961,17.9972858 1.72772595,21.974337 1.87243994,25.622487 C2.0787338,30.8541562 2.11876115,36.0766344 2.59908758,41.2870011 C2.93114989,44.7479805 3.51042501,48.1813869 4.33257514,51.561451 C5.87208052,57.804133 12.1040168,62.99921 18.2096924,65.1187292 C24.7467449,67.329042 31.7767629,67.6959099 38.5127539,66.1784458 C39.2537051,66.0079394 39.9865821,65.8099458 40.7111269,65.5846369 C42.3460987,65.0700253 44.2643602,64.4944266 45.6745384,63.4834138 C45.6938654,63.4692407 45.7097564,63.4509446 45.7209231,63.4298138 C45.7320897,63.4087689 45.7383602,63.3854048 45.7391333,63.3616112 L45.7391333,58.3127318 C45.7387897,58.2904843 45.7334641,58.2685805 45.7235,58.2486523 C45.71345,58.2287241 45.6991051,58.211201 45.6813243,58.1975433 C45.6636295,58.1837997 45.6430141,58.1741792 45.6211102,58.169283 C45.5991205,58.1644728 45.5763577,58.1645587 45.5544538,58.1695407 C41.2387949,59.1891433 36.8163654,59.700233 32.3793334,59.6921587 C24.7433949,59.6921587 22.6896731,56.1080023 22.1015334,54.615792 C21.6288398,53.3262138 21.3286283,51.98106 21.2086296,50.6144318 C21.207427,50.5914972 21.2117219,50.5685626 21.2210847,50.5475177 C21.2304475,50.5265587 21.2447924,50.5080049 21.2627449,50.4934882 C21.2807834,50.4789715 21.3020001,50.4688356 21.324677,50.4639395 C21.3473539,50.4589574 21.3708898,50.4594728 21.3933949,50.4652279 C25.6371578,51.4778728 29.9874334,51.9889626 34.3529987,51.9878459 C35.4029231,51.9878459 36.4497551,51.9878459 37.4997654,51.9604446 C41.8904128,51.838642 46.5181372,51.6163395 50.8380051,50.7819318 C50.9458064,50.7606292 51.0535218,50.7423331 51.1459474,50.7149318 C57.9597615,49.4207151 64.4441589,45.3584536 65.1030781,35.0717203 C65.1277307,34.6667139 65.1893191,30.8297613 65.1893191,30.4095511 C65.1924115,28.9813344 65.654282,20.2782063 65.1215461,14.9308332 Z M54.6344141,40.5987908 L47.4696231,40.5987908 L47.4696231,23.2411524 C47.4696231,19.5869037 45.9300833,17.7232729 42.7986923,17.7232729 C39.3563526,17.7232729 37.6321333,19.9280024 37.6321333,24.2825729 L37.6321333,33.7836024 L30.510377,33.7836024 L30.510377,24.2825729 C30.510377,19.9280024 28.7830654,17.7232729 25.3407257,17.7232729 C22.2278026,17.7232729 20.6728873,19.5869037 20.669795,23.2411524 L20.669795,40.5987908 L13.5111027,40.5987908 L13.5111027,22.7143434 C13.5111027,19.0600947 14.4543424,16.1570191 16.340736,14.0050306 C18.2866565,11.858196 20.8391847,10.7558742 24.0075116,10.7558742 C27.674559,10.7558742 30.4456962,12.150505 32.2930923,14.9369319 L34.0758936,17.8968717 L35.8617013,14.9369319 C37.7090975,12.150505 40.4802346,10.7558742 44.1411833,10.7558742 C47.3064179,10.7558742 49.8588602,11.858196 51.8109653,14.0050306 C53.6974448,16.1549576 54.6405987,19.0580332 54.6405987,22.7143434 L54.6344141,40.5987908 Z" id="Shape"></path>
                </g>
            </g>
        </g>
    </g>
</svg>